<?xml version="1.0" encoding="UTF-8" standalone="no"?>
<!-- Created with Inkscape (http://www.inkscape.org/) -->

<svg
   xmlns:dc="http://purl.org/dc/elements/1.1/"
   xmlns:cc="http://creativecommons.org/ns#"
   xmlns:rdf="http://www.w3.org/1999/02/22-rdf-syntax-ns#"
   xmlns:svg="http://www.w3.org/2000/svg"
   xmlns="http://www.w3.org/2000/svg"
   xmlns:sodipodi="http://sodipodi.sourceforge.net/DTD/sodipodi-0.dtd"
   xmlns:inkscape="http://www.inkscape.org/namespaces/inkscape"
   width="97.001556mm"
   height="97.001556mm"
   viewBox="0 0 97.001556 97.001556"
   version="1.1"
   id="svg8"
   inkscape:version="0.92.4 (5da689c313, 2019-01-14)"
   sodipodi:docname="greenenergy.svg">
  <defs
     id="defs2">
    <clipPath
       clipPathUnits="userSpaceOnUse"
       id="clipPath1008">
      <rect
         ry="19.243717"
         rx="19.243717"
         y="27.431774"
         x="157.99831"
         height="96.001556"
         width="96.001556"
         id="rect1010"
         style="opacity:1;fill:none;fill-opacity:1;stroke:#000000;stroke-width:1;stroke-linejoin:bevel;stroke-miterlimit:4;stroke-dasharray:none;stroke-dashoffset:0;stroke-opacity:0.98823529" />
    </clipPath>
    <clipPath
       clipPathUnits="userSpaceOnUse"
       id="clipPath1281">
      <rect
         ry="19.243717"
         rx="19.243717"
         y="79.174316"
         x="230.45525"
         height="96.001556"
         width="96.001556"
         id="rect1283"
         style="opacity:1;fill:none;fill-opacity:1;stroke:#000000;stroke-width:1;stroke-linejoin:bevel;stroke-miterlimit:4;stroke-dasharray:none;stroke-dashoffset:0;stroke-opacity:0.98823529" />
    </clipPath>
    <clipPath
       clipPathUnits="userSpaceOnUse"
       id="clipPath1606">
      <rect
         style="opacity:1;fill:none;fill-opacity:1;stroke:#000000;stroke-width:1;stroke-linejoin:bevel;stroke-miterlimit:4;stroke-dasharray:none;stroke-dashoffset:0;stroke-opacity:0.98823529"
         id="rect1608"
         width="96.001556"
         height="96.001556"
         x="340.03165"
         y="63.415112"
         rx="19.243717"
         ry="19.243717" />
    </clipPath>
    <clipPath
       clipPathUnits="userSpaceOnUse"
       id="clipPath1664">
      <rect
         style="opacity:1;fill:none;fill-opacity:1;stroke:#000000;stroke-width:1;stroke-linejoin:bevel;stroke-miterlimit:4;stroke-dasharray:none;stroke-dashoffset:0;stroke-opacity:0.98823529"
         id="rect1666"
         width="96.001556"
         height="96.001556"
         x="439.5907"
         y="57.594269"
         rx="19.243717"
         ry="19.243717" />
    </clipPath>
  </defs>
  <sodipodi:namedview
     id="base"
     pagecolor="#ffffff"
     bordercolor="#666666"
     borderopacity="1.0"
     inkscape:pageopacity="0.0"
     inkscape:pageshadow="2"
     inkscape:zoom="1.4"
     inkscape:cx="306.16264"
     inkscape:cy="139.77278"
     inkscape:document-units="mm"
     inkscape:current-layer="layer1"
     showgrid="false"
     fit-margin-top="0"
     fit-margin-left="0"
     fit-margin-right="0"
     fit-margin-bottom="0"
     inkscape:window-width="1860"
     inkscape:window-height="1016"
     inkscape:window-x="60"
     inkscape:window-y="27"
     inkscape:window-maximized="1">
    <inkscape:grid
       type="xygrid"
       id="grid815"
       originx="-438.92118"
       originy="-143.06937" />
  </sodipodi:namedview>
  <metadata
     id="metadata5">
    <rdf:RDF>
      <cc:Work
         rdf:about="">
        <dc:format>image/svg+xml</dc:format>
        <dc:type
           rdf:resource="http://purl.org/dc/dcmitype/StillImage" />
        <dc:title></dc:title>
      </cc:Work>
    </rdf:RDF>
  </metadata>
  <g
     inkscape:label="Layer 1"
     inkscape:groupmode="layer"
     id="layer1"
     transform="translate(-438.92117,-56.929077)">
    <g
       id="g1662"
       clip-path="url(#clipPath1664)">
      <rect
         y="21.833332"
         x="391.58334"
         height="166.6875"
         width="190.5"
         id="rect1640"
         style="opacity:1;fill:#decd87;fill-opacity:1;stroke:none;stroke-width:0.5;stroke-linejoin:bevel;stroke-miterlimit:4;stroke-dasharray:none;stroke-dashoffset:0;stroke-opacity:1" />
      <path
         inkscape:connector-curvature="0"
         id="path1631"
         d="m 503.65865,69.314189 c -5.22486,-0.09693 -12.74084,4.623797 -15.86596,6.757147 2.01925,0.35835 6.38829,1.18889 8.62396,2.033327 5.81191,2.195245 14.97583,8.49338 14.97583,8.49338 0,0 -9.11281,-3.683451 -16.77002,-6.183435 -2.96928,-0.969431 -5.71435,-1.637207 -7.62139,-2.040668 1.84223,3.393309 7.17347,12.608434 12.13504,15.353301 9.57875,5.299208 32.68854,3.156812 32.68854,3.156812 0,0 -14.33537,-24.853529 -26.87367,-27.4331 -0.41084,-0.08452 -0.843,-0.128428 -1.29233,-0.136764 z"
         style="fill:#008000;stroke:#000000;stroke-width:0.19780791px;stroke-linecap:butt;stroke-linejoin:miter;stroke-opacity:1" />
      <path
         sodipodi:nodetypes="ccccccc"
         inkscape:connector-curvature="0"
         id="path1629"
         d="m 492.40294,68.004094 -27.69311,43.517716 h 17.80271 l -13.84656,33.62736 29.6712,-39.56157 h -19.7808 l 13.84655,-37.583506"
         style="fill:#ffe400;fill-opacity:1;stroke:#000000;stroke-width:0.19780791px;stroke-linecap:butt;stroke-linejoin:miter;stroke-opacity:1" />
      <path
         style="fill:#008000;stroke:#000000;stroke-width:0.19780791px;stroke-linecap:butt;stroke-linejoin:miter;stroke-opacity:1"
         d="m 471.39357,69.23036 c 5.22485,-0.09693 12.74083,4.623798 15.86596,6.757148 -2.01926,0.35835 -6.3883,1.188889 -8.62396,2.033326 -5.81192,2.195246 -14.97583,8.493381 -14.97583,8.493381 0,0 9.1128,-3.683452 16.77001,-6.183435 2.96929,-0.969432 5.71435,-1.637207 7.6214,-2.040668 -1.84223,3.393308 -7.17349,12.608434 -12.13506,15.3533 -9.57873,5.299209 -32.68853,3.156813 -32.68853,3.156813 0,0 14.33536,-24.853528 26.87368,-27.4331 0.41083,-0.08452 0.84298,-0.128429 1.29233,-0.136765 z"
         id="path1638"
         inkscape:connector-curvature="0" />
    </g>
    <rect
       ry="19.243717"
       rx="19.243717"
       y="57.429077"
       x="439.42117"
       height="96.001556"
       width="96.001556"
       id="rect1648"
       style="opacity:1;fill:none;fill-opacity:1;stroke:#000000;stroke-width:1;stroke-linejoin:bevel;stroke-miterlimit:4;stroke-dasharray:none;stroke-dashoffset:0;stroke-opacity:0.98823529" />
  </g>
</svg>
