<?xml version="1.0" encoding="UTF-8" standalone="no"?>
<!-- Created with Inkscape (http://www.inkscape.org/) -->

<svg
   xmlns:dc="http://purl.org/dc/elements/1.1/"
   xmlns:cc="http://creativecommons.org/ns#"
   xmlns:rdf="http://www.w3.org/1999/02/22-rdf-syntax-ns#"
   xmlns:svg="http://www.w3.org/2000/svg"
   xmlns="http://www.w3.org/2000/svg"
   xmlns:sodipodi="http://sodipodi.sourceforge.net/DTD/sodipodi-0.dtd"
   xmlns:inkscape="http://www.inkscape.org/namespaces/inkscape"
   width="97.001556mm"
   height="97.001556mm"
   viewBox="0 0 97.001556 97.001556"
   version="1.1"
   id="svg8"
   inkscape:version="0.92.4 (5da689c313, 2019-01-14)"
   sodipodi:docname="windatsea.svg">
  <defs
     id="defs2">
    <clipPath
       clipPathUnits="userSpaceOnUse"
       id="clipPath910">
      <rect
         ry="19.243717"
         rx="19.243717"
         y="16.094427"
         x="11.220031"
         height="96.001556"
         width="96.001556"
         id="rect912"
         style="opacity:1;fill:none;fill-opacity:1;stroke:#000000;stroke-width:0.2544041;stroke-linejoin:bevel;stroke-miterlimit:4;stroke-dasharray:none;stroke-dashoffset:0;stroke-opacity:0.98823529" />
    </clipPath>
  </defs>
  <sodipodi:namedview
     id="base"
     pagecolor="#ffffff"
     bordercolor="#666666"
     borderopacity="1.0"
     inkscape:pageopacity="0.0"
     inkscape:pageshadow="2"
     inkscape:zoom="1.4"
     inkscape:cx="233.46964"
     inkscape:cy="181.31478"
     inkscape:document-units="mm"
     inkscape:current-layer="layer1"
     showgrid="false"
     fit-margin-top="0"
     fit-margin-left="0"
     fit-margin-right="0"
     fit-margin-bottom="0"
     inkscape:window-width="1860"
     inkscape:window-height="1016"
     inkscape:window-x="60"
     inkscape:window-y="27"
     inkscape:window-maximized="1">
    <inkscape:grid
       type="xygrid"
       id="grid815"
       originx="-10.720031"
       originy="-184.40402" />
  </sodipodi:namedview>
  <metadata
     id="metadata5">
    <rdf:RDF>
      <cc:Work
         rdf:about="">
        <dc:format>image/svg+xml</dc:format>
        <dc:type
           rdf:resource="http://purl.org/dc/dcmitype/StillImage" />
        <dc:title></dc:title>
      </cc:Work>
    </rdf:RDF>
  </metadata>
  <g
     inkscape:label="Layer 1"
     inkscape:groupmode="layer"
     id="layer1"
     transform="translate(-10.720031,-15.594427)">
    <g
       id="g902"
       clip-path="url(#clipPath910)">
      <rect
         y="10.802691"
         x="2.9399641"
         height="118.13313"
         width="118.13313"
         id="rect885"
         style="opacity:1;fill:#f9f9f9;fill-opacity:1;stroke:#000000;stroke-width:0.26499999;stroke-linejoin:bevel;stroke-miterlimit:4;stroke-dasharray:none;stroke-dashoffset:0;stroke-opacity:0.98823529" />
      <path
         inkscape:connector-curvature="0"
         id="path841"
         d="M -4.095381,91.555365 H 122.08879 V 127.60799 H -4.095381 V 91.555365"
         style="opacity:0.75;fill:#000080;stroke:none;stroke-width:0.36052623px;stroke-linecap:butt;stroke-linejoin:miter;stroke-opacity:1" />
      <path
         inkscape:connector-curvature="0"
         id="path862"
         d="m 81.476396,46.68758 a 8.3344249,8.3344249 0 0 0 -7.374228,4.462262 5.6434241,5.6434241 0 0 0 -2.314586,-0.50178 5.6434241,5.6434241 0 0 0 -5.450313,4.206462 7.3499122,7.3499122 0 0 0 -6.710185,7.316867 7.3499122,7.3499122 0 0 0 7.349939,7.349937 7.3499122,7.3499122 0 0 0 0.245462,-0.0088 5.6434241,5.6434241 0 0 0 5.634281,5.385202 5.6434241,5.6434241 0 0 0 4.770252,-2.640666 5.6434241,5.6434241 0 0 0 4.851385,2.77399 5.6434241,5.6434241 0 0 0 4.709273,-2.540413 8.3344249,8.3344249 0 0 0 6.182051,2.759003 8.3344249,8.3344249 0 0 0 7.188193,-4.132564 5.6434241,5.6434241 0 0 0 3.1688,0.974101 5.6434241,5.6434241 0 0 0 5.64307,-5.643581 5.6434241,5.6434241 0 0 0 -5.64307,-5.643068 5.6434241,5.6434241 0 0 0 -0.65113,0.04444 5.6434241,5.6434241 0 0 0 -5.630142,-5.256527 5.6434241,5.6434241 0 0 0 -3.656627,1.353407 7.3499122,7.3499122 0 0 0 -3.292305,-0.788066 7.3499122,7.3499122 0 0 0 -0.781347,0.05013 8.3344249,8.3344249 0 0 0 0.0956,-1.185974 8.3344249,8.3344249 0 0 0 -8.334375,-8.334375 z"
         style="opacity:1;fill:#f2f2f2;fill-opacity:1;stroke:#000000;stroke-width:0.26499999;stroke-linejoin:bevel;stroke-miterlimit:4;stroke-dasharray:none;stroke-dashoffset:0;stroke-opacity:0.98823529" />
      <path
         inkscape:connector-curvature="0"
         id="path843"
         d="m 43.817546,35.737965 a 9.0241812,9.0241812 0 0 0 -6.713802,3.009117 5.3922405,5.3922405 0 0 0 -2.074292,-0.41651 5.3922405,5.3922405 0 0 0 -5.391919,5.392436 5.3922405,5.3922405 0 0 0 0.0026,0.06769 6.9378371,6.9378371 0 0 0 -3.891752,2.97398 5.3922405,5.3922405 0 0 0 -1.11311,-0.11834 5.3922405,5.3922405 0 0 0 -5.392436,5.39192 5.3922405,5.3922405 0 0 0 5.392436,5.392435 5.3922405,5.3922405 0 0 0 3.302641,-1.133263 6.9378371,6.9378371 0 0 0 3.689697,1.072285 6.9378371,6.9378371 0 0 0 4.033345,-1.303279 7.627281,7.627281 0 0 0 5.605343,2.465482 7.627281,7.627281 0 0 0 4.164604,-1.240234 7.627281,7.627281 0 0 0 4.434353,1.428853 7.627281,7.627281 0 0 0 5.379517,-2.22622 5.3922405,5.3922405 0 0 0 4.447791,2.353861 5.3922405,5.3922405 0 0 0 5.392436,-5.392436 5.3922405,5.3922405 0 0 0 -2.758488,-4.702038 7.627281,7.627281 0 0 0 0.457854,-2.574004 7.627281,7.627281 0 0 0 -7.627443,-7.62744 7.627281,7.627281 0 0 0 -3.918622,1.092957 9.0241812,9.0241812 0 0 0 -7.420737,-3.907256 z"
         style="opacity:1;fill:#f2f2f2;fill-opacity:1;stroke:#000000;stroke-width:0.27995014;stroke-linejoin:bevel;stroke-miterlimit:4;stroke-dasharray:none;stroke-dashoffset:0;stroke-opacity:0.98823529" />
      <path
         sodipodi:nodetypes="cccc"
         inkscape:connector-curvature="0"
         id="path835"
         d="m 54.239583,89.302083 c 0,-1.322916 1.322917,-38.364583 1.322917,-38.364583 h 2.645834 l 1.322916,38.364583"
         style="fill:#ffffff;stroke:#000000;stroke-width:0.26458332px;stroke-linecap:butt;stroke-linejoin:miter;stroke-opacity:1" />
      <path
         inkscape:connector-curvature="0"
         id="path817"
         d="M 55.562499,50.937501 50.270833,74.75 c 0,0 2.645833,10.583334 2.645833,7.9375 0,-2.645833 5.291667,-31.749999 5.291667,-31.749999"
         style="fill:#ffffff;stroke:#000000;stroke-width:0.26458332px;stroke-linecap:butt;stroke-linejoin:miter;stroke-opacity:1" />
      <path
         style="fill:#ffffff;stroke:#000000;stroke-width:0.26458332px;stroke-linecap:butt;stroke-linejoin:miter;stroke-opacity:1"
         d="M 57.149999,48.820834 44.053792,28.241082 c 0,0 -9.354433,-5.612661 -7.483546,-3.741774 1.870886,1.870887 18.708866,26.192413 18.708866,26.192413"
         id="path819"
         inkscape:connector-curvature="0" />
      <path
         inkscape:connector-curvature="0"
         id="path821"
         d="m 58.208333,50.9375 23.268061,-7.323533 c 0,0 7.84252,-7.583025 5.551161,-6.260108 C 84.736196,38.676775 56.885416,48.64614 56.885416,48.64614"
         style="fill:#ffffff;stroke:#000000;stroke-width:0.26458332px;stroke-linecap:butt;stroke-linejoin:miter;stroke-opacity:1" />
      <circle
         r="2.6458333"
         cy="49.992561"
         cx="56.885418"
         id="path823"
         style="opacity:1;fill:#ffffff;fill-opacity:1;stroke:#000000;stroke-width:0.26499999;stroke-linejoin:bevel;stroke-miterlimit:4;stroke-dasharray:none;stroke-dashoffset:0;stroke-opacity:0.98823529" />
      <path
         sodipodi:nodetypes="cccc"
         inkscape:connector-curvature="0"
         id="path833"
         d="m 52.916667,95.916667 -10e-7,-6.614584 h 7.9375 l 10e-7,6.614584"
         style="fill:#ffd42a;stroke:#000000;stroke-width:0.26458332px;stroke-linecap:butt;stroke-linejoin:miter;stroke-opacity:1" />
      <path
         inkscape:connector-curvature="0"
         id="path839"
         d="M 47.624999,95.916667 H 66.145832"
         style="fill:#ffffff;stroke:#000000;stroke-width:0.26458332px;stroke-linecap:butt;stroke-linejoin:miter;stroke-opacity:1" />
    </g>
    <rect
       style="opacity:1;fill:none;fill-opacity:1;stroke:#000000;stroke-width:1;stroke-linejoin:bevel;stroke-miterlimit:4;stroke-dasharray:none;stroke-dashoffset:0;stroke-opacity:0.98823529"
       id="rect889"
       width="96.001556"
       height="96.001556"
       x="11.220031"
       y="16.094427"
       rx="19.243717"
       ry="19.243717" />
  </g>
</svg>
